<?xml version="1.0" encoding="UTF-8" standalone="no"?>
<svg
   xmlns:dc="http://purl.org/dc/elements/1.1/"
   xmlns:cc="http://creativecommons.org/ns#"
   xmlns:rdf="http://www.w3.org/1999/02/22-rdf-syntax-ns#"
   xmlns:svg="http://www.w3.org/2000/svg"
   xmlns="http://www.w3.org/2000/svg"
   xmlns:sodipodi="http://sodipodi.sourceforge.net/DTD/sodipodi-0.dtd"
   xmlns:inkscape="http://www.inkscape.org/namespaces/inkscape"
   version="1.1"
   viewBox="0 0 555.27612 116.80107"
   stroke-miterlimit="10"
   id="svg3075"
   inkscape:version="0.48.0 r9654"
   width="100%"
   height="100%"
   sodipodi:docname="CD2_amsl.technology_WEISS.svg"
   style="fill:none;stroke:none"
   inkscape:export-filename="V:\AMSL\CD\CD2_amsl.technology_WEISS.png"
   inkscape:export-xdpi="165.97"
   inkscape:export-ydpi="165.97">
  <metadata
     id="metadata3124">
    <rdf:RDF>
      <cc:Work
         rdf:about="">
        <dc:format>image/svg+xml</dc:format>
        <dc:type
           rdf:resource="http://purl.org/dc/dcmitype/StillImage" />
        <dc:title></dc:title>
      </cc:Work>
    </rdf:RDF>
  </metadata>
  <defs
     id="defs3122" />
  <sodipodi:namedview
     pagecolor="#ffffff"
     bordercolor="#666666"
     borderopacity="1"
     objecttolerance="10"
     gridtolerance="10"
     guidetolerance="10"
     inkscape:pageopacity="0"
     inkscape:pageshadow="2"
     inkscape:window-width="1920"
     inkscape:window-height="1137"
     id="namedview3120"
     showgrid="false"
     inkscape:zoom="1.2678377"
     inkscape:cx="137.63591"
     inkscape:cy="58.400535"
     inkscape:window-x="-4"
     inkscape:window-y="-4"
     inkscape:window-maximized="1"
     inkscape:current-layer="svg3075"
     showguides="true"
     inkscape:guide-bbox="true"
     inkscape:snap-global="false"
     fit-margin-top="0"
     fit-margin-left="0"
     fit-margin-right="0"
     fit-margin-bottom="0" />
  <clipPath
     id="p.0">
    <path
       d="M 0,0 960,0 960,720 0,720 0,0 z"
       clip-rule="nonzero"
       id="path3078"
       inkscape:connector-curvature="0" />
  </clipPath>
  <path
     inkscape:export-ydpi="115.50217"
     inkscape:export-xdpi="115.50217"
     inkscape:export-filename="/Users/seige/oerli/path3094.png"
     sodipodi:nodetypes="ccccscssscsssccccccscsscccccscccscscscccccsscsscsccccccssscccsccccccscsccccccccccccccscscccscsccccccscssccscsccccccccccccccccccc"
     style="fill:#ffffff;fill-rule:nonzero;fill-opacity:1"
     inkscape:connector-curvature="0"
     id="path3092"
     d="m 89.987062,106.5511 c -0.375,-0.84375 -0.70313,-1.70833 -0.98438,-2.59375 -0.28125,-0.89583 -0.5,-1.79687 -0.65625,-2.70312 -1.625,1.875 -3.60416,3.39062 -5.9375,4.54687 -2.32291,1.15625 -4.98437,1.73438 -7.98437,1.73438 -4.96875,0 -8.91667,-1.34896 -11.84375,-4.04688 -2.91667,-2.70833 -4.375,-6.390618 -4.375,-11.046868 0,-4.75001 1.90625,-8.42189 5.71875,-11.01564 3.8125,-2.59375 9.40625,-3.89062 16.78125,-3.89062 l 6.98437,0 0,-4.96875 c 0,-2.4375 -0.70312,-4.32813 -2.10937,-5.67188 -1.40625,-1.34375 -3.48438,-2.01562 -6.23438,-2.01562 -1.5625,0 -2.95312,0.18229 -4.17187,0.54687 -1.21875,0.35417 -2.20313,0.78125 -2.95313,1.28125 l -0.89062,5.4375 -10.3125,0 0.0469,-11.25 c 2.5,-1.6875 5.36459,-3.10937 8.59375,-4.265623 3.23959,-1.15625 6.76563,-1.734375 10.57813,-1.734375 6.28125,0 11.38021,1.541667 15.29687,4.624998 3.92709,3.07292 5.890628,7.45313 5.890628,13.14063 l 0,20.95313 c 0,0.78125 0.005,1.51563 0.0156,2.20313 0.0208,0.6875 0.0781,1.34375 0.17188,1.96875 l 4.17187,0.5625 0,8.203118 z m -11.85938,-9.140618 c 2.0625,0 3.9375,-0.44271 5.625,-1.32813 1.6875,-0.89583 3,-2.01562 3.9375,-3.35937 l 0,-7.73439 -6.98437,0 c -2.90625,0 -5.10938,0.6823 -6.60938,2.04689 -1.5,1.35416 -2.25,2.98437 -2.25,4.89062 0,1.71875 0.55209,3.0625 1.65625,4.03125 1.11459,0.96875 2.65625,1.45313 4.625,1.45313 z m 32.703128,-33.32814 0,-8.249998 20.01562,0 0.5625,6.703128 c 1.625,-2.4375 3.66146,-4.31771 6.10938,-5.640628 2.45833,-1.333333 5.29687,-2 8.51562,-2 3.25,0 6.03125,0.71875 8.34375,2.15625 2.3125,1.437498 4.0625,3.609378 5.25,6.515628 1.5625,-2.71875 3.59375,-4.84375 6.09375,-6.375003 2.5,-1.53125 5.4375,-2.296875 8.8125,-2.296875 4.99998,0 8.94268,1.729167 11.8281,5.187498 2.89583,3.44792 4.34375,8.70313 4.34375,15.76563 l 0,21.09376 6.60937,1.40625 0,8.203118 -26.20309,0 0,-8.203118 5.90625,-1.40625 0,-21.14064 c 0,-3.84375 -0.625,-6.51562 -1.875,-8.01562 -1.25,-1.5 -3.10937,-2.25 -5.57812,-2.25 -1.9375,0 -3.6198,0.43229 -5.04688,1.29687 -1.41667,0.85417 -2.54687,2.04688 -3.39062,3.57813 0,0.59375 0.0156,1.10416 0.0469,1.53125 0.0312,0.41666 0.0836,0.84529 0.0469,1.28125 l 0,23.71876 5.53125,1.40625 0,8.203118 -24.70313,0 0,-8.203118 5.53125,-1.40625 0,-21.14064 c 0,-3.75 -0.625,-6.39583 -1.875,-7.9375 -1.25,-1.55208 -3.125,-2.32812 -5.625,-2.32812 -1.84375,0 -3.46354,0.35416 -4.85937,1.0625 -1.38542,0.69791 -2.53125,1.6875 -3.4375,2.96875 l 0,27.37501 5.90625,1.40625 0,8.203118 -26.15625,0 0,-8.203118 6.60937,-1.40625 0,-31.45314 z m 130.28122,9.1875 -9.1875,0 -1.45312,-6.32812 c -0.93751,-0.75 -2.1198,-1.375 -3.54688,-1.875 -1.41667,-0.5 -2.98438,-0.75 -4.70312,-0.75 -2.40626,0 -4.31251,0.54166 -5.71875,1.625 -1.40626,1.07291 -2.10938,2.42187 -2.10938,4.04687 0,1.53125 0.67187,2.80729 2.01563,3.82813 1.34374,1.01041 4.03124,1.90625 8.0625,2.6875 6.28124,1.25 10.93749,3.08854 13.96875,5.51562 3.03124,2.41667 4.54687,5.75001 4.54687,10.00001 0,4.5625 -1.96354,8.291668 -5.89062,11.187498 -3.91667,2.88542 -9.07813,4.32813 -15.48438,4.32813 -3.90625,0 -7.49479,-0.56771 -10.76562,-1.70313 -3.26042,-1.14583 -6.15625,-2.78125 -8.6875,-4.90625 l -0.14063,-11.390618 9.5625,0 1.875,6.60937 c 0.8125,0.6875 1.92187,1.19792 3.32813,1.53125 1.40624,0.32292 2.87499,0.48438 4.40625,0.48438 2.78124,0 4.89583,-0.5 6.34375,-1.5 1.45833,-1 2.18749,-2.35938 2.1875,-4.07813 -1e-5,-1.5 -0.73438,-2.79687 -2.20313,-3.89062 -1.46875,-1.09375 -4.17188,-2.0625 -8.10937,-2.90625 -5.96876,-1.21876 -10.47917,-3.02085 -13.53125,-5.40626 -3.04167,-2.39584 -4.5625,-5.65625 -4.5625,-9.78125 0,-4.25 1.75,-7.91146 5.25,-10.98438 3.49999,-3.083331 8.48437,-4.624998 14.95312,-4.624998 3.9375,0 7.66146,0.53125 11.17188,1.59375 3.52083,1.062498 6.28124,2.421878 8.28125,4.078128 z m 6.5625,-31.593748 0,-8.25 21,0 0,63.515638 6.60938,1.406337 0,8.203031 -26.90625,0 0,-8.203118 6.60937,-1.40625 0,-53.859388 z m 46.79688,64.875006 -9.64063,0 0,-8.203031 9.64063,0 z" />
  <path
     inkscape:connector-curvature="0"
     inkscape:export-ydpi="115.50217"
     inkscape:export-xdpi="115.50217"
     style="fill:#ffffff;fill-rule:nonzero;fill-opacity:1"
     id="path3094"
     d="m 312.83078,74.972972 0,6.21875 4.45313,0 0,4.79688 -4.45313,0 0,12.92187 q 0,1.468748 0.60938,2.109378 0.60937,0.625 1.64062,0.625 0.70313,0 1.23438,-0.0469 0.53125,-0.0625 1.1875,-0.20312 l 0.57812,4.9375 q -1.14062,0.35937 -2.26562,0.53125 -1.125,0.1875 -2.4375,0.1875 -3.54688,0 -5.45313,-1.95313 -1.90625,-1.95312 -1.90625,-6.171868 l 0,-12.9375 -3.73437,0 0,-4.79689 3.73437,0 0,-6.21875 6.8125,0 z m 19.95313,32.078128 q -5.48438,0 -8.76563,-3.51563 -3.28125,-3.53125 -3.28125,-8.937498 l 0,-0.9375 q 0,-5.65625 3.09375,-9.3125 3.10938,-3.65625 8.34375,-3.625 5.125,0 7.95313,3.09375 2.84375,3.09375 2.84375,8.35938 l 0,3.73437 -15.14063,0 -0.0469,0.14063 q 0.1875,2.5 1.67187,4.124998 1.5,1.60937 4.04688,1.60937 2.28125,0 3.78125,-0.45312 1.5,-0.45313 3.28125,-1.437498 l 1.84375,4.218748 q -1.5625,1.23437 -4.0625,2.09375 -2.5,0.84375 -5.5625,0.84375 z m -0.60938,-21.062498 q -1.90625,0 -3.01562,1.45312 -1.09375,1.45313 -1.34375,3.82813 l 0.0625,0.10937 8.39062,0 0,-0.60937 q 0,-2.17188 -1.01562,-3.46875 -1.01563,-1.3125 -3.07813,-1.3125 z m 25.94531,15.796868 q 1.82813,0 2.92188,-1.0625 1.10937,-1.062498 1.10937,-2.843748 l 6.1875,0 0.0625,0.14063 q 0.0937,3.843748 -2.89062,6.437498 -2.96875,2.59375 -7.39063,2.59375 -5.67187,0 -8.75,-3.59375 -3.0625,-3.593748 -3.0625,-9.218748 l 0,-0.70313 q 0,-5.59375 3.14063,-9.20313 3.15625,-3.60937 9,-3.60937 3.0625,0 5.5,0.92187 2.4375,0.90625 4.0625,2.5625 l 0.0937,6.78126 -5.5625,0 -1.125,-3.96875 q -0.51563,-0.4375 -1.26563,-0.73438 -0.75,-0.29687 -1.70312,-0.29687 -2.90625,0 -4.10938,2.10937 -1.1875,2.10938 -1.1875,5.4375 l 0,0.70313 q 0,3.40625 1.09375,5.48437 1.10938,2.062498 3.875,2.062498 z m 13.00781,0.65625 3.29688,-0.70312 0,-26.921888 -3.65625,-0.70312 0,-4.125 10.48441,0 0,14.4375 q 1.1875,-1.76563 2.92187,-2.73438 1.73438,-0.96875 3.84375,-0.96875 3.98438,0 6.25,2.64063 2.26563,2.62501 2.26563,8.14063 l 0,10.234378 3.28125,0.70312 0,4.10938 -13.07813,0 0,-4.10938 2.95313,-0.70312 0,-10.281248 q 0,-2.95313 -1.04688,-4.1875 -1.04687,-1.23438 -3.10937,-1.23438 -1.42188,0 -2.5,0.51563 -1.0625,0.51562 -1.78125,1.45312 l 0,13.734378 2.95312,0.70312 0,4.10938 -13.07816,0 0,-4.10938 z m 30.51566,0 3.28125,-0.70312 0,-15.718748 -3.64062,-0.70313 0,-4.125 10.01562,0 0.29688,3.625 q 1.26562,-1.9375 3.10937,-3.01563 1.85938,-1.07812 4.15625,-1.07812 3.84375,0 6,2.42187 2.15625,2.40626 2.15625,7.56251 l 0,11.031248 3.28125,0.70312 0,4.10938 -13.07812,0 0,-4.10938 2.9375,-0.70312 0,-11.015628 q 0,-2.54687 -1.03125,-3.60937 -1.03125,-1.07813 -3.125,-1.07813 -1.35938,0 -2.4375,0.5625 -1.07813,0.54688 -1.79688,1.54688 l 0,13.593748 2.76563,0.70312 0,4.10938 -12.89063,0 0,-4.10938 z m 30.84375,-8.812498 q 0,-5.67187 3.17188,-9.28125 3.17187,-3.625 8.78125,-3.625 5.625,0 8.79687,3.60937 3.17188,3.60938 3.17188,9.29688 l 0,0.5 q 0,5.71875 -3.17188,9.328128 -3.17187,3.59375 -8.75,3.59375 -5.65625,0 -8.82812,-3.59375 -3.17188,-3.609378 -3.17188,-9.328128 l 0,-0.5 z m 6.84375,0.5 q 0,3.46875 1.21875,5.5625 1.21875,2.093748 3.9375,2.093748 2.64063,0 3.875,-2.109368 1.23438,-2.10938 1.23438,-5.54688 l 0,-0.5 q 0,-3.375 -1.25,-5.5 -1.23438,-2.14062 -3.90625,-2.14062 -2.67188,0 -3.89063,2.14062 -1.21875,2.125 -1.21875,5.5 l 0,0.5 z m 19.32813,-20.01563 0,-4.125 10.5,0 0,31.750008 3.3125,0.70312 0,4.10938 -13.45313,0 0,-4.10938 3.29688,-0.70312 0,-26.921888 -3.65625,-0.70312 z m 16.03906,19.51563 q 0,-5.67187 3.17187,-9.28125 3.17188,-3.625 8.78125,-3.625 5.625,0 8.79688,3.60937 3.17187,3.60938 3.17187,9.29688 l 0,0.5 q 0,5.71875 -3.17187,9.328128 -3.17188,3.59375 -8.75,3.59375 -5.65625,0 -8.82813,-3.59375 -3.17187,-3.609378 -3.17187,-9.328128 l 0,-0.5 z m 6.84375,0.5 q 0,3.46875 1.21875,5.5625 1.21875,2.093748 3.9375,2.093748 2.64062,0 3.875,-2.109368 1.23437,-2.10938 1.23437,-5.54688 l 0,-0.5 q 0,-3.375 -1.25,-5.5 -1.23437,-2.14062 -3.90625,-2.14062 -2.67187,0 -3.89062,2.14062 -1.21875,2.125 -1.21875,5.5 l 0,0.5 z m 20.48437,-0.0469 q 0,-6 2.60938,-9.67188 2.60937,-3.6875 7.32812,-3.6875 2.125,0 3.73438,0.95312 1.625,0.9375 2.78125,2.70313 l 0.48437,-3.1875 5.95313,0 0,24.609378 q 0,5.01562 -3.15625,8 -3.14063,3 -8.65625,3 -1.92188,0 -4.07813,-0.53125 -2.15625,-0.53125 -3.98437,-1.4375 l 1.26562,-4.8125 q 1.64063,0.70312 3.28125,1.10937 1.64063,0.42188 3.46875,0.42188 2.51563,0 3.75,-1.53125 1.25,-1.51563 1.25,-4.25 l 0,-1.65625 q -1.125,1.42187 -2.65625,2.1875 -1.51562,0.75 -3.48437,0.75 -4.67188,0 -7.28125,-3.4375 -2.60938,-3.4375 -2.60938,-9.046878 l 0,-0.48437 z m 6.84375,0.48437 q 0,3.32813 1.125,5.25 1.125,1.906248 3.65625,1.906248 1.5625,0 2.65625,-0.57812 1.09375,-0.57813 1.75,-1.671878 l 0,-11.01562 q -0.65625,-1.15625 -1.75,-1.78125 -1.09375,-0.64063 -2.60937,-0.64063 -2.51563,0 -3.67188,2.23438 -1.15625,2.21875 -1.15625,5.8125 l 0,0.48437 z m 46.40625,-9.25 -2.375,0.34375 -9.32812,24.687498 q -1.09375,2.75 -2.9375,4.59375 -1.84375,1.85938 -5.54688,1.85938 -0.85937,0 -1.625,-0.14063 -0.76562,-0.14062 -1.79687,-0.40625 l 0.79687,-4.98437 q 0.32813,0.0469 0.67188,0.0937 0.35937,0.0469 0.625,0.0469 1.70312,0 2.60937,-0.84375 0.92188,-0.82812 1.42188,-2.0625 l 0.76562,-1.92187 -8.03125,-20.890628 -2.375,-0.375 0,-4.125 12.42188,0 0,4.125 -2.82813,0.46875 3.46875,10.125 0.34375,1.82813 0.14063,0.0156 4.01562,-11.96875 -2.85937,-0.46875 0,-4.125 12.42187,0 0,4.125 z" />
  <text
     transform="scale(1.3527052,0.73925937)"
     sodipodi:linespacing="125%"
     id="text3943"
     y="906.66968"
     x="363.92523"
     style="font-size:16px;font-style:normal;font-weight:normal;line-height:125%;letter-spacing:0px;word-spacing:0px;fill:#ffffff;fill-opacity:1;stroke:none;font-family:Sans"
     xml:space="preserve"><tspan
       y="906.66968"
       x="363.92523"
       id="tspan3945"
       sodipodi:role="line" /></text>
  <g
     inkscape:label="Ebene 1"
     id="layer1"
     transform="translate(600.79561,-76.716868)"
     style="fill:#ffffff;fill-opacity:1">
    <g
       transform="matrix(0.89670878,0.44262103,-0.44262103,0.89670878,-145.50294,-74.461083)"
       id="g3149"
       style="fill:#ffffff;fill-opacity:1">
      <path
         inkscape:connector-curvature="0"
         id="path3243"
         d="m -319.92626,340.58977 c -0.98538,0.12224 -1.98977,0.44068 -2.90625,0.96875 -0.91612,0.52773 -1.68372,1.24007 -2.28125,2.03125 -0.59753,0.79118 -1.03061,1.68127 -1.28125,2.625 -0.25064,0.94373 -0.31205,1.92088 -0.1875,2.90625 0.12455,0.98537 0.4407,1.95889 0.96875,2.875 0.52774,0.91647 1.21175,1.68093 2,2.28125 0.78825,0.60032 1.68518,1.05821 2.625,1.3125 0.93982,0.25429 1.92381,0.30911 2.90625,0.1875 0.98244,-0.12161 1.95887,-0.44135 2.875,-0.96875 0.91651,-0.52809 1.68082,-1.20874 2.28125,-2 0.60043,-0.79126 1.02689,-1.68136 1.28125,-2.625 0.25436,-0.94364 0.34043,-1.921 0.21875,-2.90625 -0.12168,-0.98525 -0.44104,-1.99016 -0.96875,-2.90625 -0.39578,-0.68707 -0.88819,-1.26928 -1.4375,-1.78125 -0.54931,-0.51197 -1.1548,-0.92619 -1.8125,-1.25 -0.6577,-0.32381 -1.37281,-0.56491 -2.09375,-0.6875 -0.72094,-0.12259 -1.44846,-0.15418 -2.1875,-0.0625 z"
         style="fill:#ffffff;fill-opacity:1;fill-rule:nonzero;stroke:none" />
      <path
         inkscape:connector-curvature="0"
         id="path3328"
         d="m -309.92626,347.55852 c 0.13898,2.02449 -0.40308,4.03345 -1.53125,5.71875 l 20.1875,5.4375 c -0.014,-0.20585 -0.0312,-0.41569 -0.0312,-0.625 0,-1.88585 0.57729,-3.63708 1.5625,-5.09375 l -20.1875,-5.4375 z"
         style="font-size:medium;font-style:normal;font-variant:normal;font-weight:normal;font-stretch:normal;text-indent:0;text-align:start;text-decoration:none;line-height:normal;letter-spacing:normal;word-spacing:normal;text-transform:none;direction:ltr;block-progression:tb;writing-mode:lr-tb;text-anchor:start;color:#000000;fill:#ffffff;fill-opacity:1;stroke:none;stroke-width:5.91340160000000030;marker:none;visibility:visible;display:inline;overflow:visible;enable-background:accumulate;font-family:AlArabiya;-inkscape-font-specification:AlArabiya" />
      <path
         inkscape:connector-curvature="0"
         id="path3324"
         d="m -313.92626,355.74602 c -0.17532,0.11796 -0.34543,0.23668 -0.53125,0.34375 -1.62411,0.93497 -3.41619,1.31122 -5.15625,1.1875 l 5.40625,20.21875 c 1.45235,-0.97076 3.18601,-1.5625 5.0625,-1.5625 0.20931,0 0.41915,0.0174 0.625,0.0312 l -5.40625,-20.2187 z"
         style="font-size:medium;font-style:normal;font-variant:normal;font-weight:normal;font-stretch:normal;text-indent:0;text-align:start;text-decoration:none;line-height:normal;letter-spacing:normal;word-spacing:normal;text-transform:none;direction:ltr;block-progression:tb;writing-mode:lr-tb;text-anchor:start;color:#000000;fill:#ffffff;fill-opacity:1;stroke:none;stroke-width:5.91340160000000030;marker:none;visibility:visible;display:inline;overflow:visible;enable-background:accumulate;font-family:AlArabiya;-inkscape-font-specification:AlArabiya" />
      <path
         inkscape:connector-curvature="0"
         id="path3154"
         d="m -292.05126,313.55852 c -2.57729,0.0489 -5.07207,1.41372 -6.46875,3.8125 -2.1281,3.65503 -0.90508,8.31069 2.75,10.4375 3.6551,2.12816 8.34053,0.90522 10.46875,-2.75 2.12809,-3.655 0.87404,-8.34045 -2.78125,-10.46875 -0.91375,-0.53203 -1.89037,-0.84227 -2.875,-0.96875 -0.36924,-0.0474 -0.72557,-0.0695 -1.09375,-0.0625 z"
         style="fill:#ffffff;fill-opacity:1;fill-rule:nonzero;stroke:none" />
      <path
         inkscape:connector-curvature="0"
         id="path3308"
         d="m -300.11376,325.21477 -14.8125,14.8125 c 1.54715,0.77247 2.88391,1.98174 3.8125,3.59375 0.11532,0.20019 0.21398,0.41998 0.3125,0.625 l 14.84375,-14.84375 c -0.18795,-0.0928 -0.37868,-0.20547 -0.5625,-0.3125 -1.61682,-0.94079 -2.83167,-2.30782 -3.59375,-3.875 z"
         style="font-size:medium;font-style:normal;font-variant:normal;font-weight:normal;font-stretch:normal;text-indent:0;text-align:start;text-decoration:none;line-height:normal;letter-spacing:normal;word-spacing:normal;text-transform:none;direction:ltr;block-progression:tb;writing-mode:lr-tb;text-anchor:start;color:#000000;fill:#ffffff;fill-opacity:1;stroke:none;stroke-width:5.91340160000000030;marker:none;visibility:visible;display:inline;overflow:visible;enable-background:accumulate;font-family:AlArabiya;-inkscape-font-specification:AlArabiya" />
      <path
         inkscape:connector-curvature="0"
         id="path3306"
         d="m -286.83251,328.77727 c -1.67461,1.12556 -3.67449,1.6619 -5.6875,1.53125 l 5.28125,20.1875 c 1.44956,-0.97046 3.19212,-1.53125 5.0625,-1.53125 0.21974,0 0.44034,0.0159 0.65625,0.0312 l -5.3125,-20.21875 z"
         style="font-size:medium;font-style:normal;font-variant:normal;font-weight:normal;font-stretch:normal;text-indent:0;text-align:start;text-decoration:none;line-height:normal;letter-spacing:normal;word-spacing:normal;text-transform:none;direction:ltr;block-progression:tb;writing-mode:lr-tb;text-anchor:start;color:#000000;fill:#ffffff;fill-opacity:1;stroke:none;stroke-width:5.91340160000000030;marker:none;visibility:visible;display:inline;overflow:visible;enable-background:accumulate;font-family:AlArabiya;-inkscape-font-specification:AlArabiya" />
      <path
         inkscape:connector-curvature="0"
         id="path3146"
         d="m -255.20751,323.46477 c -4.22986,0 -7.65625,3.42639 -7.65625,7.65625 0,4.22986 3.42654,7.625 7.65625,7.625 4.22971,0 7.625,-3.39514 7.625,-7.625 0,-4.22986 -3.39514,-7.65625 -7.625,-7.65625 z"
         style="fill:#ffffff;fill-opacity:1;fill-rule:nonzero;stroke:none" />
      <path
         inkscape:connector-curvature="0"
         id="path3318"
         d="m -282.83251,320.62102 c 0.11619,1.7531 -0.26984,3.55775 -1.21875,5.1875 -0.10052,0.17265 -0.20258,0.33651 -0.3125,0.5 l 20.0625,5.40625 c -0.0126,-0.19576 -0.0312,-0.39487 -0.0312,-0.59375 0,-1.88585 0.57729,-3.63708 1.5625,-5.09375 l -20.0625,-5.40625 z"
         style="font-size:medium;font-style:normal;font-variant:normal;font-weight:normal;font-stretch:normal;text-indent:0;text-align:start;text-decoration:none;line-height:normal;letter-spacing:normal;word-spacing:normal;text-transform:none;direction:ltr;block-progression:tb;writing-mode:lr-tb;text-anchor:start;color:#000000;fill:#ffffff;fill-opacity:1;stroke:none;stroke-width:5.91340160000000030;marker:none;visibility:visible;display:inline;overflow:visible;enable-background:accumulate;font-family:AlArabiya;-inkscape-font-specification:AlArabiya" />
      <path
         inkscape:connector-curvature="0"
         id="path3314"
         d="m -263.39501,335.12102 -14.78125,14.78125 c 1.8202,0.89093 3.29269,2.36953 4.1875,4.1875 l 14.75,-14.78125 c -1.80877,-0.8944 -3.26742,-2.37554 -4.15625,-4.1875 z"
         style="font-size:medium;font-style:normal;font-variant:normal;font-weight:normal;font-stretch:normal;text-indent:0;text-align:start;text-decoration:none;line-height:normal;letter-spacing:normal;word-spacing:normal;text-transform:none;direction:ltr;block-progression:tb;writing-mode:lr-tb;text-anchor:start;color:#000000;fill:#ffffff;fill-opacity:1;stroke:none;stroke-width:5.91340160000000030;marker:none;visibility:visible;display:inline;overflow:visible;enable-background:accumulate;font-family:AlArabiya;-inkscape-font-specification:AlArabiya" />
      <path
         inkscape:connector-curvature="0"
         id="path3150"
         d="m -309.14501,377.40227 c -4.22971,0 -7.65625,3.39514 -7.65625,7.625 0,4.22986 3.42639,7.65625 7.65625,7.65625 4.22986,0 7.65625,-3.42639 7.65625,-7.65625 0,-4.22986 -3.42654,-7.625 -7.65625,-7.625 z"
         style="fill:#ffffff;fill-opacity:1;fill-rule:nonzero;stroke:none" />
      <path
         inkscape:connector-curvature="0"
         id="path3158"
         d="m -272.58251,387.30852 c -2.5773,0.0428 -5.0721,1.38252 -6.46875,3.78125 -2.12809,3.655 -0.90528,8.34049 2.75,10.46875 3.65518,2.12819 8.34047,0.87408 10.46875,-2.78125 2.12812,-3.65505 0.9049,-8.31079 -2.75,-10.4375 l -0.0312,0 c -0.91378,-0.53204 -1.89037,-0.84214 -2.875,-0.96875 -0.36924,-0.0475 -0.72556,-0.0686 -1.09375,-0.0625 z"
         style="fill:#ffffff;fill-opacity:1;fill-rule:nonzero;stroke:none" />
      <path
         inkscape:connector-curvature="0"
         id="path3142"
         d="m -282.17626,350.43352 c -4.22985,0 -7.65625,3.42639 -7.65625,7.65625 0,4.22986 3.42655,7.625 7.65625,7.625 4.22971,0 7.625,-3.39514 7.625,-7.625 0,-4.22986 -3.39514,-7.65625 -7.625,-7.65625 z"
         style="fill:#ffffff;fill-opacity:1;fill-rule:nonzero;stroke:none" />
      <path
         inkscape:connector-curvature="0"
         id="path3344"
         d="m -277.14501,365.68352 c -1.44525,0.96168 -3.17006,1.53125 -5.03125,1.53125 -0.22013,0 -0.43996,-0.0158 -0.65625,-0.0312 l 5.34375,20.21875 c 1.67873,-1.1148 3.68191,-1.66535 5.6875,-1.53125 l -5.34375,-20.1875 z"
         style="font-size:medium;font-style:normal;font-variant:normal;font-weight:normal;font-stretch:normal;text-indent:0;text-align:start;text-decoration:none;line-height:normal;letter-spacing:normal;word-spacing:normal;text-transform:none;direction:ltr;block-progression:tb;writing-mode:lr-tb;text-anchor:start;color:#000000;fill:#ffffff;fill-opacity:1;stroke:none;stroke-width:5.91340160000000030;marker:none;visibility:visible;display:inline;overflow:visible;enable-background:accumulate;font-family:AlArabiya;-inkscape-font-specification:AlArabiya" />
      <path
         inkscape:connector-curvature="0"
         id="path3338"
         d="m -290.36376,362.08977 -14.78125,14.78125 c 1.82058,0.88761 3.29444,2.3724 4.1875,4.1875 l 14.75,-14.78125 c -1.80877,-0.8944 -3.26742,-2.37554 -4.15625,-4.1875 z"
         style="font-size:medium;font-style:normal;font-variant:normal;font-weight:normal;font-stretch:normal;text-indent:0;text-align:start;text-decoration:none;line-height:normal;letter-spacing:normal;word-spacing:normal;text-transform:none;direction:ltr;block-progression:tb;writing-mode:lr-tb;text-anchor:start;color:#000000;fill:#ffffff;fill-opacity:1;stroke:none;stroke-width:5.91340160000000030;marker:none;visibility:visible;display:inline;overflow:visible;enable-background:accumulate;font-family:AlArabiya;-inkscape-font-specification:AlArabiya" />
      <path
         inkscape:connector-curvature="0"
         id="path3334"
         d="m -300.05126,384.43352 c 0.0135,0.20226 0.0312,0.38805 0.0312,0.59375 0,1.88585 -0.57729,3.66833 -1.5625,5.125 l 20.03125,5.40625 c -0.12168,-1.75311 0.26984,-3.55775 1.21875,-5.1875 0.10686,-0.18354 0.22617,-0.35796 0.34375,-0.53125 l -20.0625,-5.40625 z"
         style="font-size:medium;font-style:normal;font-variant:normal;font-weight:normal;font-stretch:normal;text-indent:0;text-align:start;text-decoration:none;line-height:normal;letter-spacing:normal;word-spacing:normal;text-transform:none;direction:ltr;block-progression:tb;writing-mode:lr-tb;text-anchor:start;color:#000000;fill:#ffffff;fill-opacity:1;stroke:none;stroke-width:5.91340160000000030;marker:none;visibility:visible;display:inline;overflow:visible;enable-background:accumulate;font-family:AlArabiya;-inkscape-font-specification:AlArabiya" />
    </g>
  </g>
</svg>
